:SAMPLES-PER-SECOND 30
:FULLY-SPECIFIED
:DEGREES
262
root  49.4042 32.6861 -66.6472 15.9671 -48.3657 -8.9512
RightUpLeg  -20.1962 -4.37672 -5.51915
RightLeg  32.4607 -6.09957 -3.34995
RightFoot  -8.79509 0.057377 1.12373
RightToes  -32.8705 -0.164179 -0.271413
Spine  6.67961 -0.417316 0.874297
Spine1  11.4479 -0.8539 1.33865
HEad  8.72549 -4.93574 12.8428
LeftShoulder1  0 -2.42657e-020 -4.95415e-022
LeftArm  14.5422 -13.6727 -61.4995
LeftForeArm  177.412 -73.9933 -141.47
LeftHand  -2.11476 -5.51324 41.6242
RightShoulder  0 2.42657e-020 1.07489e-018
RightArm  12.8211 6.04174 50.6671
RightForeArm  -156.55 69.5577 151.367
RightHand  -6.46675 9.8469 -66.179
LeftUpLeg  -18.6508 1.07835 -2.04944
LeftLeg  32.4143 0.3233 0.173163
LeftFoot  -17.8933 -0.0260338 -0.165376
LeftToes  9.70298 3.33339e-006 -4.73431e-007
263
root  48.5692 32.7714 -66.8986 15.2042 -47.2822 -8.53773
RightUpLeg  -19.8177 -3.25719 -5.17619
RightLeg  23.3374 -2.03595 -0.73001
RightFoot  -5.41731 -0.00677803 0.234311
RightToes  -41.3255 -0.229158 -0.322487
Spine  6.4708 -0.579853 0.838466
Spine1  11.0029 -1.18772 1.15755
HEad  7.24136 -3.73193 12.0487
LeftShoulder1  0 -2.42657e-020 -4.95415e-022
LeftArm  13.6449 -17.0001 -56.8715
LeftForeArm  -173.684 -72.3794 -145.761
LeftHand  -2.62637 -6.19371 45.6005
RightShoulder  0 2.42657e-020 1.07489e-018
RightArm  12.1213 7.20748 49.8087
RightForeArm  -148.45 67.7615 154.111
RightHand  -6.25782 8.96066 -69.471
LeftUpLeg  -17.027 0.624556 -0.751436
LeftLeg  31.4267 -0.194614 -0.106295
LeftFoot  -17.6339 0.00162806 0.0104871
LeftToes  7.56283 3.33339e-006 -4.73431e-007
264
root  47.6795 32.8254 -67.0967 13.9051 -46.0411 -7.61554
RightUpLeg  -18.7934 -0.352824 -5.14989
RightLeg  16.1057 2.3322 0.51383
RightFoot  -2.67722 -0.0115048 -0.114824
RightToes  -47.9144 -0.284589 -0.355328
Spine  6.30558 -0.669086 0.761549
Spine1  10.598 -1.37813 0.952169
HEad  5.89989 -3.4088 11.4659
LeftShoulder1  0 -2.42657e-020 -4.95415e-022
LeftArm  12.2823 -21.8573 -53.4187
LeftForeArm  -171.469 -72.6895 -145.041
LeftHand  -2.80756 -6.2563 47.9801
RightShoulder  0 2.42657e-020 1.07489e-018
RightArm  9.22351 8.46881 49.653
RightForeArm  -140.868 66.9832 155.19
RightHand  -6.42667 8.58461 -73.2654
LeftUpLeg  -15.1762 -0.272902 0.182851
LeftLeg  30.3544 -0.450206 -0.229924
LeftFoot  -17.0177 0.0136127 0.0909792
LeftToes  5.07375 3.33339e-006 -4.73431e-007
265
root  46.7708 32.8766 -67.2611 12.2986 -43.9078 -6.26295
RightUpLeg  -17.851 1.71073 -4.92714
RightLeg  14.6334 6.78396 1.31064
RightFoot  3.80117 -0.0010624 0.40949
RightToes  -50.992 -0.311692 -0.368438
Spine  6.04173 -0.983974 0.659015
Spine1  9.96012 -2.05022 0.795848
HEad  5.51578 -4.14212 10.9296
LeftShoulder1  0 -2.42657e-020 -4.95415e-022
LeftArm  9.32005 -27.9736 -51.5237
LeftForeArm  -177.113 -75.3762 -136.907
LeftHand  -3.0502 -6.78457 48.0488
RightShoulder  0 2.42657e-020 1.07489e-018
RightArm  4.76255 11.3833 50.5721
RightForeArm  -138.177 69.6578 151.361
RightHand  -5.72757 7.05526 -77.7981
LeftUpLeg  -13.3414 -1.04467 0.996036
LeftLeg  29.0662 -1.65949 -0.79085
LeftFoot  -16.0594 0.0631447 0.447604
LeftToes  1.8766 3.33339e-006 -4.73431e-007
266
root  45.9259 32.9553 -67.3089 9.69588 -41.5729 -4.08365
RightUpLeg  -16.5893 1.31121 -5.242
RightLeg  17.0291 5.53106 1.3103
RightFoot  3.48346 0.00292829 0.281193
RightToes  -49.2349 -0.296131 -0.361131
Spine  5.77387 -1.46974 0.153879
Spine1  9.345 -2.95897 -0.228942
HEad  6.67517 -4.67427 11.1827
LeftShoulder1  0 -2.42657e-020 -4.95415e-022
LeftArm  4.75708 -35.1904 -51.8139
LeftForeArm  142.952 -79.9133 -93.5219
LeftHand  -3.56452 -7.91076 48.1247
RightShoulder  0 2.42657e-020 1.07489e-018
RightArm  -0.30889 16.7902 52.5173
RightForeArm  -156.795 76.4656 132.612
RightHand  -5.67274 7.2023 -76.1025
LeftUpLeg  -10.3784 -2.98708 0.880842
LeftLeg  26.4153 -2.32637 -0.977588
LeftFoot  -14.4717 0.0732022 0.576538
LeftToes  -1.20878 3.33339e-006 -4.73431e-007
267
root  45.1593 33.1326 -67.4316 8.35101 -39.9328 -3.29485
RightUpLeg  -15.0221 0.21877 -4.41881
RightLeg  17.4023 5.26383 1.28323
RightFoot  3.84885 0.00304414 0.286898
RightToes  -44.3382 -0.254033 -0.338294
Spine  5.32504 -1.70866 -0.00460112
Spine1  8.47997 -3.45137 -0.482811
HEad  7.91295 -5.23519 10.9904
LeftShoulder1  0 -2.42657e-020 -4.95415e-022
LeftArm  0.857513 -43.4404 -57.011
LeftForeArm  79.9641 -69.4557 -28.1104
LeftHand  -2.78214 -7.16418 42.0707
RightShoulder  0 2.42657e-020 1.07489e-018
RightArm  -6.38561 25.5788 56.0763
RightForeArm  117.709 76.9026 49.2838
RightHand  -6.28114 8.76543 -70.868
LeftUpLeg  -7.68601 -4.18487 1.617
LeftLeg  23.4549 -3.00215 -1.08144
LeftFoot  -12.5407 0.0708763 0.645036
LeftToes  -3.98022 3.33339e-006 -4.73431e-007
268
root  44.4752 33.2866 -67.586 7.49487 -38.6208 -2.66881
RightUpLeg  -13.6501 2.5134 -3.62586
RightLeg  17.1307 1.26046 0.301227
RightFoot  3.51132 0.0130205 -0.0472295
RightToes  -41.4667 -0.230304 -0.323256
Spine  4.69968 -1.95786 -0.0793
Spine1  7.31508 -4.22281 -0.342143
HEad  10.0099 -5.89621 10.2431
LeftShoulder1  0 -2.42657e-020 -4.95415e-022
LeftArm  -3.63768 -51.0962 -66.5967
LeftForeArm  67.3582 -50.4289 -12.2678
LeftHand  -2.20785 -9.6129 25.4623
RightShoulder  0 2.42657e-020 1.07489e-018
RightArm  -12.3994 37.2879 62.1558
RightForeArm  80.5261 55.4492 14.752
RightHand  -8.5026 15.5987 -56.6279
LeftUpLeg  -5.82733 -4.9337 2.31039
LeftLeg  21.1419 -3.5099 -1.10566
LeftFoot  -10.6996 0.0602406 0.64328
LeftToes  -6.34788 3.33339e-006 -4.73431e-007
269
root  43.7683 33.417 -67.6642 7.31424 -37.3589 -2.40268
RightUpLeg  -12.4033 2.59322 -2.66419
RightLeg  16.5311 -0.121121 -0.0275338
RightFoot  2.96334 0.0146438 -0.188546
RightToes  -38.5588 -0.207074 -0.306837
Spine  4.76749 -2.23334 0.222089
Spine1  7.0719 -4.928 0.148561
HEad  12.2518 -6.41835 9.23416
LeftShoulder1  0 -2.42657e-020 -4.95415e-022
LeftArm  -4.84764 -58.4448 -76.4382
LeftForeArm  65.3861 -37.5708 -7.73134
LeftHand  0.0459222 -3.35096 -1.94381
RightShoulder  0 2.42657e-020 1.07489e-018
RightArm  -17.2266 49.2376 66.0954
RightForeArm  69.8239 37.6935 7.75624
RightHand  -5.30598 20.3085 -28.6488
LeftUpLeg  -4.52261 -5.10329 3.23447
LeftLeg  19.2325 -4.06588 -1.13261
LeftFoot  -9.00068 0.0470055 0.597202
LeftToes  -9.09053 3.33339e-006 -4.73431e-007
270
root  43.1416 33.528 -67.7196 7.51459 -36.2497 -2.05397
RightUpLeg  -11.4609 2.11111 -1.98611
RightLeg  15.4003 -0.639476 -0.132155
RightFoot  2.74436 0.0144336 -0.224954
RightToes  -37.3299 -0.197512 -0.299547
Spine  5.29451 -1.95661 0.571311
Spine1  7.44929 -4.08884 0.241361
HEad  12.6293 -7.18453 8.55871
LeftShoulder1  0 -2.42657e-020 -4.95415e-022
LeftArm  -3.75882 -61.9475 -82.5452
LeftForeArm  60.1822 -30.4628 -5.89905
LeftHand  0.239301 -2.62226 -10.8251
RightShoulder  0 2.42657e-020 1.07489e-018
RightArm  -25.4941 59.3035 66.0096
RightForeArm  58.2925 26.5776 5.01321
RightHand  1.4562 18.5421 9.27645
LeftUpLeg  -4.04422 -5.36382 4.00738
LeftLeg  17.9811 -4.62211 -1.17877
LeftFoot  -7.31406 0.0335051 0.524209
LeftToes  -11.9894 3.33339e-006 -4.73431e-007
271
root  42.6242 33.6143 -67.8249 7.34953 -34.9913 -1.53236
RightUpLeg  -10.5243 1.58776 -1.51059
RightLeg  14.4747 -1.29475 -0.245999
RightFoot  2.42773 0.0141428 -0.229355
RightToes  -35.8602 -0.186286 -0.290563
Spine  5.38681 -1.41285 0.600519
Spine1  7.577 -2.62991 -0.104725
HEad  11.4342 -8.45545 9.01809
LeftShoulder1  0 -2.42657e-020 -4.95415e-022
LeftArm  0.800193 -60.8112 -83.5693
LeftForeArm  58.9094 -29.7028 -5.72205
LeftHand  0.241882 -3.22764 -8.95847
RightShoulder  0 2.42657e-020 1.07489e-018
RightArm  -33.7256 61.6482 62.0101
RightForeArm  56.5404 20.3914 3.7152
RightHand  2.72926 14.3226 21.8512
LeftUpLeg  -4.31766 -5.85402 4.5822
LeftLeg  18.2254 -5.29452 -1.37347
LeftFoot  -5.78344 0.0233455 0.462157
LeftToes  -14.7295 3.33339e-006 -4.73431e-007
272
root  42.1866 33.6762 -67.9798 6.84813 -33.4755 -1.00529
RightUpLeg  -9.39248 1.25819 -1.0442
RightLeg  13.6013 -2.50161 -0.43616
RightFoot  2.11449 0.0158377 -0.254106
RightToes  -33.931 -0.171906 -0.278338
Spine  5.27237 -1.31852 0.437216
Spine1  7.65066 -2.29812 -0.477386
HEad  10.1441 -9.3964 10.6618
LeftShoulder1  0 -2.42657e-020 -4.95415e-022
LeftArm  2.19388 -57.2815 -81.9509
LeftForeArm  55.6154 -32.5812 -6.42753
LeftHand  0.269874 -3.95633 -8.18576
RightShoulder  0 2.42657e-020 1.07489e-018
RightArm  -34.8031 58.2745 59.5872
RightForeArm  54.9374 20.9117 3.82339
RightHand  2.64696 17.2202 17.7271
LeftUpLeg  -5.06576 -6.41589 5.07169
LeftLeg  19.5927 -5.94417 -1.69324
LeftFoot  -4.40749 0.0147888 0.384297
LeftToes  -17.8122 3.33339e-006 -4.73431e-007
273
root  41.7842 33.6999 -68.1465 6.40074 -32.1205 -0.89389
RightUpLeg  -8.38185 0.666658 -0.325876
RightLeg  13.0647 -3.1603 -0.520544
RightFoot  1.95045 0.0161289 -0.248817
RightToes  -33.0647 -0.165584 -0.272692
Spine  5.19235 -1.44394 0.313343
Spine1  7.84957 -2.47284 -0.691784
HEad  9.08735 -10.1981 12.1027
LeftShoulder1  0 -2.42657e-020 -4.95415e-022
LeftArm  0.767208 -52.8619 -79.9932
LeftForeArm  56.9716 -35.7021 -7.23584
LeftHand  0.277587 -3.99285 -8.33494
RightShoulder  0 2.42657e-020 1.07489e-018
RightArm  -28.818 52.0294 58.1724
RightForeArm  52.9961 25.2892 4.74242
RightHand  1.36146 20.7754 7.78929
LeftUpLeg  -6.02355 -6.70686 5.75852
LeftLeg  21.6807 -6.22918 -2.0216
LeftFoot  -3.54262 0.00978622 0.316439
LeftToes  -20.5684 3.33339e-006 -4.73431e-007
274
root  41.4421 33.6755 -68.3071 6.16489 -31.2386 -1.04015
RightUpLeg  -7.92003 -0.819847 0.391825
RightLeg  13.1636 -2.41634 -0.402198
RightFoot  1.5239 0.0128992 -0.182851
RightToes  -32.3756 -0.160617 -0.268133
Spine  5.15361 -1.53198 0.310472
Spine1  8.05662 -2.76286 -0.486944
HEad  8.13539 -11.5471 12.8367
LeftShoulder1  0 -2.42657e-020 -4.95415e-022
LeftArm  -1.09197 -48.2761 -78.6843
LeftForeArm  57.4012 -37.4076 -7.70631
LeftHand  0.258162 -4.27306 -7.29335
RightShoulder  0 2.42657e-020 1.07489e-018
RightArm  -24.9613 45.5292 57.6954
RightForeArm  51.6241 30.1 5.8341
RightHand  0.406707 21.5415 2.50847
LeftUpLeg  -7.23518 -7.12972 6.3901
LeftLeg  24.2634 -5.73382 -2.1514
LeftFoot  -3.24603 0.00731816 0.258268
LeftToes  -22.1997 3.33339e-006 -4.73431e-007
275
root  41.1524 33.6388 -68.4486 5.97993 -30.6315 -1.06328
RightUpLeg  -7.77181 -1.86004 0.957423
RightLeg  13.4988 -1.97914 -0.34128
RightFoot  0.866286 0.0110366 -0.134363
RightToes  -31.2847 -0.152867 -0.260795
Spine  5.04178 -1.69033 0.259263
Spine1  8.07698 -3.27464 -0.278253
HEad  7.91795 -12.7 13.0848
LeftShoulder1  0 -2.42657e-020 -4.95415e-022
LeftArm  -2.65923 -43.3453 -77.2603
LeftForeArm  55.9626 -37.6245 -7.77127
LeftHand  0.216137 -4.06304 -6.46852
RightShoulder  0 2.42657e-020 1.07489e-018
RightArm  -22.0059 38.7179 58.7086
RightForeArm  50.5804 34.7342 6.99448
RightHand  -0.147167 22.6805 -0.363892
LeftUpLeg  -8.37598 -7.37106 6.73003
LeftLeg  26.5795 -4.81169 -2.03229
LeftFoot  -2.99778 0.00466999 0.178462
LeftToes  -23.2856 3.33339e-006 -4.73431e-007
